<?xml version="1.0" standalone="no"?><!DOCTYPE svg PUBLIC "-//W3C//DTD SVG 1.1//EN" "http://www.w3.org/Graphics/SVG/1.1/DTD/svg11.dtd"><svg t="1618886719327" class="icon" viewBox="0 0 1024 1024" version="1.1" xmlns="http://www.w3.org/2000/svg" p-id="2453" xmlns:xlink="http://www.w3.org/1999/xlink" width="200" height="200"><defs><style type="text/css">@font-face { font-family: "Leelawadee UI Web"; src: url("https://static2.sharepointonline.com/files/fabric/assets/fonts/leelawadeeui-thai/leelawadeeui-light.woff2") format("woff2"), url("https://static2.sharepointonline.com/files/fabric/assets/fonts/leelawadeeui-thai/leelawadeeui-light.woff") format("woff"); font-weight: 100; font-style: normal; font-display: swap; }
@font-face { font-family: "Leelawadee UI Web"; src: url("https://static2.sharepointonline.com/files/fabric/assets/fonts/leelawadeeui-thai/leelawadeeui-semilight.woff2") format("woff2"), url("https://static2.sharepointonline.com/files/fabric/assets/fonts/leelawadeeui-thai/leelawadeeui-semilight.woff") format("woff"); font-weight: 300; font-style: normal; font-display: swap; }
@font-face { font-family: "Leelawadee UI Web"; src: url("https://static2.sharepointonline.com/files/fabric/assets/fonts/leelawadeeui-thai/leelawadeeui-regular.woff2") format("woff2"), url("https://static2.sharepointonline.com/files/fabric/assets/fonts/leelawadeeui-thai/leelawadeeui-regular.woff") format("woff"); font-weight: 400; font-style: normal; font-display: swap; }
@font-face { font-family: "Leelawadee UI Web"; src: url("https://static2.sharepointonline.com/files/fabric/assets/fonts/leelawadeeui-thai/leelawadeeui-semibold.woff2") format("woff2"), url("https://static2.sharepointonline.com/files/fabric/assets/fonts/leelawadeeui-thai/leelawadeeui-semibold.woff") format("woff"); font-weight: 600; font-style: normal; font-display: swap; }
@font-face { font-family: "Leelawadee UI Web"; src: url("https://static2.sharepointonline.com/files/fabric/assets/fonts/leelawadeeui-thai/leelawadeeui-bold.woff2") format("woff2"), url("https://static2.sharepointonline.com/files/fabric/assets/fonts/leelawadeeui-thai/leelawadeeui-bold.woff") format("woff"); font-weight: 700; font-style: normal; font-display: swap; }
@font-face { font-family: "Segoe UI Web (Arabic)"; src: url("https://static2.sharepointonline.com/files/fabric/assets/fonts/segoeui-arabic/segoeui-light.woff2") format("woff2"), url("https://static2.sharepointonline.com/files/fabric/assets/fonts/segoeui-arabic/segoeui-light.woff") format("woff"); font-weight: 100; font-style: normal; font-display: swap; }
@font-face { font-family: "Segoe UI Web (Arabic)"; src: url("https://static2.sharepointonline.com/files/fabric/assets/fonts/segoeui-arabic/segoeui-semilight.woff2") format("woff2"), url("https://static2.sharepointonline.com/files/fabric/assets/fonts/segoeui-arabic/segoeui-semilight.woff") format("woff"); font-weight: 300; font-style: normal; font-display: swap; }
@font-face { font-family: "Segoe UI Web (Arabic)"; src: url("https://static2.sharepointonline.com/files/fabric/assets/fonts/segoeui-arabic/segoeui-regular.woff2") format("woff2"), url("https://static2.sharepointonline.com/files/fabric/assets/fonts/segoeui-arabic/segoeui-regular.woff") format("woff"); font-weight: 400; font-style: normal; font-display: swap; }
@font-face { font-family: "Segoe UI Web (Arabic)"; src: url("https://static2.sharepointonline.com/files/fabric/assets/fonts/segoeui-arabic/segoeui-semibold.woff2") format("woff2"), url("https://static2.sharepointonline.com/files/fabric/assets/fonts/segoeui-arabic/segoeui-semibold.woff") format("woff"); font-weight: 600; font-style: normal; font-display: swap; }
@font-face { font-family: "Segoe UI Web (Arabic)"; src: url("https://static2.sharepointonline.com/files/fabric/assets/fonts/segoeui-arabic/segoeui-bold.woff2") format("woff2"), url("https://static2.sharepointonline.com/files/fabric/assets/fonts/segoeui-arabic/segoeui-bold.woff") format("woff"); font-weight: 700; font-style: normal; font-display: swap; }
@font-face { font-family: "Segoe UI Web (Cyrillic)"; src: url("https://static2.sharepointonline.com/files/fabric/assets/fonts/segoeui-cyrillic/segoeui-light.woff2") format("woff2"), url("https://static2.sharepointonline.com/files/fabric/assets/fonts/segoeui-cyrillic/segoeui-light.woff") format("woff"); font-weight: 100; font-style: normal; font-display: swap; }
@font-face { font-family: "Segoe UI Web (Cyrillic)"; src: url("https://static2.sharepointonline.com/files/fabric/assets/fonts/segoeui-cyrillic/segoeui-semilight.woff2") format("woff2"), url("https://static2.sharepointonline.com/files/fabric/assets/fonts/segoeui-cyrillic/segoeui-semilight.woff") format("woff"); font-weight: 300; font-style: normal; font-display: swap; }
@font-face { font-family: "Segoe UI Web (Cyrillic)"; src: url("https://static2.sharepointonline.com/files/fabric/assets/fonts/segoeui-cyrillic/segoeui-regular.woff2") format("woff2"), url("https://static2.sharepointonline.com/files/fabric/assets/fonts/segoeui-cyrillic/segoeui-regular.woff") format("woff"); font-weight: 400; font-style: normal; font-display: swap; }
@font-face { font-family: "Segoe UI Web (Cyrillic)"; src: url("https://static2.sharepointonline.com/files/fabric/assets/fonts/segoeui-cyrillic/segoeui-semibold.woff2") format("woff2"), url("https://static2.sharepointonline.com/files/fabric/assets/fonts/segoeui-cyrillic/segoeui-semibold.woff") format("woff"); font-weight: 600; font-style: normal; font-display: swap; }
@font-face { font-family: "Segoe UI Web (Cyrillic)"; src: url("https://static2.sharepointonline.com/files/fabric/assets/fonts/segoeui-cyrillic/segoeui-bold.woff2") format("woff2"), url("https://static2.sharepointonline.com/files/fabric/assets/fonts/segoeui-cyrillic/segoeui-bold.woff") format("woff"); font-weight: 700; font-style: normal; font-display: swap; }
@font-face { font-family: "Segoe UI Web (East European)"; src: url("https://static2.sharepointonline.com/files/fabric/assets/fonts/segoeui-easteuropean/segoeui-light.woff2") format("woff2"), url("https://static2.sharepointonline.com/files/fabric/assets/fonts/segoeui-easteuropean/segoeui-light.woff") format("woff"); font-weight: 100; font-style: normal; font-display: swap; }
@font-face { font-family: "Segoe UI Web (East European)"; src: url("https://static2.sharepointonline.com/files/fabric/assets/fonts/segoeui-easteuropean/segoeui-semilight.woff2") format("woff2"), url("https://static2.sharepointonline.com/files/fabric/assets/fonts/segoeui-easteuropean/segoeui-semilight.woff") format("woff"); font-weight: 300; font-style: normal; font-display: swap; }
@font-face { font-family: "Segoe UI Web (East European)"; src: url("https://static2.sharepointonline.com/files/fabric/assets/fonts/segoeui-easteuropean/segoeui-regular.woff2") format("woff2"), url("https://static2.sharepointonline.com/files/fabric/assets/fonts/segoeui-easteuropean/segoeui-regular.woff") format("woff"); font-weight: 400; font-style: normal; font-display: swap; }
@font-face { font-family: "Segoe UI Web (East European)"; src: url("https://static2.sharepointonline.com/files/fabric/assets/fonts/segoeui-easteuropean/segoeui-semibold.woff2") format("woff2"), url("https://static2.sharepointonline.com/files/fabric/assets/fonts/segoeui-easteuropean/segoeui-semibold.woff") format("woff"); font-weight: 600; font-style: normal; font-display: swap; }
@font-face { font-family: "Segoe UI Web (East European)"; src: url("https://static2.sharepointonline.com/files/fabric/assets/fonts/segoeui-easteuropean/segoeui-bold.woff2") format("woff2"), url("https://static2.sharepointonline.com/files/fabric/assets/fonts/segoeui-easteuropean/segoeui-bold.woff") format("woff"); font-weight: 700; font-style: normal; font-display: swap; }
@font-face { font-family: "Segoe UI Web (Greek)"; src: url("https://static2.sharepointonline.com/files/fabric/assets/fonts/segoeui-greek/segoeui-light.woff2") format("woff2"), url("https://static2.sharepointonline.com/files/fabric/assets/fonts/segoeui-greek/segoeui-light.woff") format("woff"); font-weight: 100; font-style: normal; font-display: swap; }
@font-face { font-family: "Segoe UI Web (Greek)"; src: url("https://static2.sharepointonline.com/files/fabric/assets/fonts/segoeui-greek/segoeui-semilight.woff2") format("woff2"), url("https://static2.sharepointonline.com/files/fabric/assets/fonts/segoeui-greek/segoeui-semilight.woff") format("woff"); font-weight: 300; font-style: normal; font-display: swap; }
@font-face { font-family: "Segoe UI Web (Greek)"; src: url("https://static2.sharepointonline.com/files/fabric/assets/fonts/segoeui-greek/segoeui-regular.woff2") format("woff2"), url("https://static2.sharepointonline.com/files/fabric/assets/fonts/segoeui-greek/segoeui-regular.woff") format("woff"); font-weight: 400; font-style: normal; font-display: swap; }
@font-face { font-family: "Segoe UI Web (Greek)"; src: url("https://static2.sharepointonline.com/files/fabric/assets/fonts/segoeui-greek/segoeui-semibold.woff2") format("woff2"), url("https://static2.sharepointonline.com/files/fabric/assets/fonts/segoeui-greek/segoeui-semibold.woff") format("woff"); font-weight: 600; font-style: normal; font-display: swap; }
@font-face { font-family: "Segoe UI Web (Greek)"; src: url("https://static2.sharepointonline.com/files/fabric/assets/fonts/segoeui-greek/segoeui-bold.woff2") format("woff2"), url("https://static2.sharepointonline.com/files/fabric/assets/fonts/segoeui-greek/segoeui-bold.woff") format("woff"); font-weight: 700; font-style: normal; font-display: swap; }
@font-face { font-family: "Segoe UI Web (Hebrew)"; src: url("https://static2.sharepointonline.com/files/fabric/assets/fonts/segoeui-hebrew/segoeui-light.woff2") format("woff2"), url("https://static2.sharepointonline.com/files/fabric/assets/fonts/segoeui-hebrew/segoeui-light.woff") format("woff"); font-weight: 100; font-style: normal; font-display: swap; }
@font-face { font-family: "Segoe UI Web (Hebrew)"; src: url("https://static2.sharepointonline.com/files/fabric/assets/fonts/segoeui-hebrew/segoeui-semilight.woff2") format("woff2"), url("https://static2.sharepointonline.com/files/fabric/assets/fonts/segoeui-hebrew/segoeui-semilight.woff") format("woff"); font-weight: 300; font-style: normal; font-display: swap; }
@font-face { font-family: "Segoe UI Web (Hebrew)"; src: url("https://static2.sharepointonline.com/files/fabric/assets/fonts/segoeui-hebrew/segoeui-regular.woff2") format("woff2"), url("https://static2.sharepointonline.com/files/fabric/assets/fonts/segoeui-hebrew/segoeui-regular.woff") format("woff"); font-weight: 400; font-style: normal; font-display: swap; }
@font-face { font-family: "Segoe UI Web (Hebrew)"; src: url("https://static2.sharepointonline.com/files/fabric/assets/fonts/segoeui-hebrew/segoeui-semibold.woff2") format("woff2"), url("https://static2.sharepointonline.com/files/fabric/assets/fonts/segoeui-hebrew/segoeui-semibold.woff") format("woff"); font-weight: 600; font-style: normal; font-display: swap; }
@font-face { font-family: "Segoe UI Web (Hebrew)"; src: url("https://static2.sharepointonline.com/files/fabric/assets/fonts/segoeui-hebrew/segoeui-bold.woff2") format("woff2"), url("https://static2.sharepointonline.com/files/fabric/assets/fonts/segoeui-hebrew/segoeui-bold.woff") format("woff"); font-weight: 700; font-style: normal; font-display: swap; }
@font-face { font-family: "Segoe UI Web (Vietnamese)"; src: url("https://static2.sharepointonline.com/files/fabric/assets/fonts/segoeui-vietnamese/segoeui-light.woff2") format("woff2"), url("https://static2.sharepointonline.com/files/fabric/assets/fonts/segoeui-vietnamese/segoeui-light.woff") format("woff"); font-weight: 100; font-style: normal; font-display: swap; }
@font-face { font-family: "Segoe UI Web (Vietnamese)"; src: url("https://static2.sharepointonline.com/files/fabric/assets/fonts/segoeui-vietnamese/segoeui-semilight.woff2") format("woff2"), url("https://static2.sharepointonline.com/files/fabric/assets/fonts/segoeui-vietnamese/segoeui-semilight.woff") format("woff"); font-weight: 300; font-style: normal; font-display: swap; }
@font-face { font-family: "Segoe UI Web (Vietnamese)"; src: url("https://static2.sharepointonline.com/files/fabric/assets/fonts/segoeui-vietnamese/segoeui-regular.woff2") format("woff2"), url("https://static2.sharepointonline.com/files/fabric/assets/fonts/segoeui-vietnamese/segoeui-regular.woff") format("woff"); font-weight: 400; font-style: normal; font-display: swap; }
@font-face { font-family: "Segoe UI Web (Vietnamese)"; src: url("https://static2.sharepointonline.com/files/fabric/assets/fonts/segoeui-vietnamese/segoeui-semibold.woff2") format("woff2"), url("https://static2.sharepointonline.com/files/fabric/assets/fonts/segoeui-vietnamese/segoeui-semibold.woff") format("woff"); font-weight: 600; font-style: normal; font-display: swap; }
@font-face { font-family: "Segoe UI Web (Vietnamese)"; src: url("https://static2.sharepointonline.com/files/fabric/assets/fonts/segoeui-vietnamese/segoeui-bold.woff2") format("woff2"), url("https://static2.sharepointonline.com/files/fabric/assets/fonts/segoeui-vietnamese/segoeui-bold.woff") format("woff"); font-weight: 700; font-style: normal; font-display: swap; }
@font-face { font-family: "Segoe UI Web (West European)"; src: local("Segoe UI Light"), url("https://static2.sharepointonline.com/files/fabric/assets/fonts/segoeui-westeuropean/segoeui-light.woff2") format("woff2"), url("https://static2.sharepointonline.com/files/fabric/assets/fonts/segoeui-westeuropean/segoeui-light.woff") format("woff"); font-weight: 100; font-style: normal; font-display: swap; }
@font-face { font-family: "Segoe UI Web (West European)"; src: local("Segoe UI SemiLight"), url("https://static2.sharepointonline.com/files/fabric/assets/fonts/segoeui-westeuropean/segoeui-semilight.woff2") format("woff2"), url("https://static2.sharepointonline.com/files/fabric/assets/fonts/segoeui-westeuropean/segoeui-semilight.woff") format("woff"); font-weight: 300; font-style: normal; font-display: swap; }
@font-face { font-family: "Segoe UI Web (West European)"; src: local("Segoe UI"), url("https://static2.sharepointonline.com/files/fabric/assets/fonts/segoeui-westeuropean/segoeui-regular.woff2") format("woff2"), url("https://static2.sharepointonline.com/files/fabric/assets/fonts/segoeui-westeuropean/segoeui-regular.woff") format("woff"); font-weight: 400; font-style: normal; font-display: swap; }
@font-face { font-family: "Segoe UI Web (West European)"; src: local("Segoe UI SemiBold"), url("https://static2.sharepointonline.com/files/fabric/assets/fonts/segoeui-westeuropean/segoeui-semibold.woff2") format("woff2"), url("https://static2.sharepointonline.com/files/fabric/assets/fonts/segoeui-westeuropean/segoeui-semibold.woff") format("woff"); font-weight: 600; font-style: normal; font-display: swap; }
@font-face { font-family: "Segoe UI Web (West European)"; src: local("Segoe UI Bold"), url("https://static2.sharepointonline.com/files/fabric/assets/fonts/segoeui-westeuropean/segoeui-bold.woff2") format("woff2"), url("https://static2.sharepointonline.com/files/fabric/assets/fonts/segoeui-westeuropean/segoeui-bold.woff") format("woff"); font-weight: 700; font-style: normal; font-display: swap; }
@font-face { src: url("https://static2.sharepointonline.com/files/fabric/assets/fonts/selawik/selawik-light.woff2") format("woff2"), url("https://static2.sharepointonline.com/files/fabric/assets/fonts/selawik/selawik-light.woff") format("woff"); font-weight: 100; font-style: normal; font-display: swap; }
@font-face { src: url("https://static2.sharepointonline.com/files/fabric/assets/fonts/selawik/selawik-semilight.woff2") format("woff2"), url("https://static2.sharepointonline.com/files/fabric/assets/fonts/selawik/selawik-semilight.woff") format("woff"); font-weight: 300; font-style: normal; font-display: swap; }
@font-face { src: url("https://static2.sharepointonline.com/files/fabric/assets/fonts/selawik/selawik-regular.woff2") format("woff2"), url("https://static2.sharepointonline.com/files/fabric/assets/fonts/selawik/selawik-regular.woff") format("woff"); font-weight: 400; font-style: normal; font-display: swap; }
@font-face { src: url("https://static2.sharepointonline.com/files/fabric/assets/fonts/selawik/selawik-semibold.woff2") format("woff2"), url("https://static2.sharepointonline.com/files/fabric/assets/fonts/selawik/selawik-semibold.woff") format("woff"); font-weight: 600; font-style: normal; font-display: swap; }
@font-face { src: url("https://static2.sharepointonline.com/files/fabric/assets/fonts/selawik/selawik-bold.woff2") format("woff2"), url("https://static2.sharepointonline.com/files/fabric/assets/fonts/selawik/selawik-bold.woff") format("woff"); font-weight: 700; font-style: normal; font-display: swap; }
@font-face { font-family: "Segoe UI Web (Armenian)"; src: url("https://static2.sharepointonline.com/files/fabric/assets/fonts/segoeui-armenian/segoeui-light.woff2") format("woff2"), url("https://static2.sharepointonline.com/files/fabric/assets/fonts/segoeui-armenian/segoeui-light.woff") format("woff"); font-weight: 100; font-style: normal; font-display: swap; }
@font-face { font-family: "Segoe UI Web (Armenian)"; src: url("https://static2.sharepointonline.com/files/fabric/assets/fonts/segoeui-armenian/segoeui-semilight.woff2") format("woff2"), url("https://static2.sharepointonline.com/files/fabric/assets/fonts/segoeui-armenian/segoeui-semilight.woff") format("woff"); font-weight: 300; font-style: normal; font-display: swap; }
@font-face { font-family: "Segoe UI Web (Armenian)"; src: url("https://static2.sharepointonline.com/files/fabric/assets/fonts/segoeui-armenian/segoeui-regular.woff2") format("woff2"), url("https://static2.sharepointonline.com/files/fabric/assets/fonts/segoeui-armenian/segoeui-regular.woff") format("woff"); font-weight: 400; font-style: normal; font-display: swap; }
@font-face { font-family: "Segoe UI Web (Armenian)"; src: url("https://static2.sharepointonline.com/files/fabric/assets/fonts/segoeui-armenian/segoeui-semibold.woff2") format("woff2"), url("https://static2.sharepointonline.com/files/fabric/assets/fonts/segoeui-armenian/segoeui-semibold.woff") format("woff"); font-weight: 600; font-style: normal; font-display: swap; }
@font-face { font-family: "Segoe UI Web (Armenian)"; src: url("https://static2.sharepointonline.com/files/fabric/assets/fonts/segoeui-armenian/segoeui-bold.woff2") format("woff2"), url("https://static2.sharepointonline.com/files/fabric/assets/fonts/segoeui-armenian/segoeui-bold.woff") format("woff"); font-weight: 700; font-style: normal; font-display: swap; }
@font-face { font-family: "Segoe UI Web (Georgian)"; src: url("https://static2.sharepointonline.com/files/fabric/assets/fonts/segoeui-georgian/segoeui-light.woff2") format("woff2"), url("https://static2.sharepointonline.com/files/fabric/assets/fonts/segoeui-georgian/segoeui-light.woff") format("woff"); font-weight: 100; font-style: normal; font-display: swap; }
@font-face { font-family: "Segoe UI Web (Georgian)"; src: url("https://static2.sharepointonline.com/files/fabric/assets/fonts/segoeui-georgian/segoeui-semilight.woff2") format("woff2"), url("https://static2.sharepointonline.com/files/fabric/assets/fonts/segoeui-georgian/segoeui-semilight.woff") format("woff"); font-weight: 300; font-style: normal; font-display: swap; }
@font-face { font-family: "Segoe UI Web (Georgian)"; src: url("https://static2.sharepointonline.com/files/fabric/assets/fonts/segoeui-georgian/segoeui-regular.woff2") format("woff2"), url("https://static2.sharepointonline.com/files/fabric/assets/fonts/segoeui-georgian/segoeui-regular.woff") format("woff"); font-weight: 400; font-style: normal; font-display: swap; }
@font-face { font-family: "Segoe UI Web (Georgian)"; src: url("https://static2.sharepointonline.com/files/fabric/assets/fonts/segoeui-georgian/segoeui-semibold.woff2") format("woff2"), url("https://static2.sharepointonline.com/files/fabric/assets/fonts/segoeui-georgian/segoeui-semibold.woff") format("woff"); font-weight: 600; font-style: normal; font-display: swap; }
@font-face { font-family: "Segoe UI Web (Georgian)"; src: url("https://static2.sharepointonline.com/files/fabric/assets/fonts/segoeui-georgian/segoeui-bold.woff2") format("woff2"), url("https://static2.sharepointonline.com/files/fabric/assets/fonts/segoeui-georgian/segoeui-bold.woff") format("woff"); font-weight: 700; font-style: normal; font-display: swap; }
@font-face { font-family: "Leelawadee UI Web"; src: url("https://static2.sharepointonline.com/files/fabric/assets/fonts/leelawadeeui-thai/leelawadeeui-semilight.woff2") format("woff2"), url("https://static2.sharepointonline.com/files/fabric/assets/fonts/leelawadeeui-thai/leelawadeeui-semilight.woff") format("woff"); font-weight: 100; font-style: normal; font-display: swap; }
@font-face { font-family: "Leelawadee UI Web"; src: url("https://static2.sharepointonline.com/files/fabric/assets/fonts/leelawadeeui-thai/leelawadeeui-bold.woff2") format("woff2"), url("https://static2.sharepointonline.com/files/fabric/assets/fonts/leelawadeeui-thai/leelawadeeui-bold.woff") format("woff"); font-weight: 600; font-style: normal; font-display: swap; }
@font-face { font-family: FabricMDL2Icons; src: url("fabric-icons.woff") format("woff"); }
@font-face { font-family: FabricMDL2Icons; src: url("fabric-icons.woff") format("woff"); }
</style></defs><path d="M465.92 193.024c26.624-32.768 23.04-82.432-10.24-108.544-9.216-7.168-18.944-11.776-29.696-11.776-15.36 0-29.696 4.608-41.472 12.288-8.704 5.632-18.944 5.632-27.648 0-11.776-7.68-26.112-12.288-41.472-12.288-10.752 0-20.48 4.608-29.696 11.776-33.28 26.112-37.376 75.776-10.24 108.544l77.824 81.92c9.216 9.728 25.088 9.728 34.816 0l77.824-81.92z" fill="#FFF152" p-id="2454"></path><path d="M370.688 290.304c-8.704 0-16.896-3.584-23.04-9.728L269.824 197.632c-14.848-17.92-21.504-41.472-18.944-64.512 2.56-22.016 13.312-41.984 30.72-55.296 11.264-9.216 23.04-13.312 34.304-13.312 16.384 0 31.744 4.608 45.568 13.312 6.144 4.096 13.312 4.096 19.456 0 13.824-8.704 29.184-13.312 45.568-13.312 11.264 0 23.04 4.608 34.304 13.312 17.408 13.312 28.16 33.28 30.72 55.296 2.56 23.04-4.096 46.592-18.944 64.512l-0.512 0.512-77.824 81.92c-6.144 6.656-14.336 10.24-23.552 10.24zM281.6 187.904l77.824 81.92c3.072 3.072 7.168 5.12 11.776 5.12 4.608 0 8.704-2.048 11.776-5.12l77.824-81.92c11.776-14.848 17.408-33.792 15.36-52.736-2.048-17.92-10.752-33.792-24.576-45.056-8.704-6.656-16.896-10.24-25.088-10.24-13.312 0-26.112 3.584-37.376 11.264-11.264 7.168-25.088 7.168-35.84 0-11.264-7.168-24.064-11.264-37.376-11.264-7.68 0-16.384 3.584-25.088 10.24-13.824 10.752-22.528 26.624-24.576 45.056-2.048 18.944 3.584 37.888 15.36 52.736z" fill="#FFB5EC" p-id="2455"></path><path d="M826.368 532.992c-27.648-67.584-68.096-233.472-74.24-349.696-2.56-51.712-49.664-89.088-100.864-81.92-94.208 13.312-133.632 99.84-121.344 194.048 3.072 26.112 8.192 55.296 16.384 87.04H479.232c-155.648 0-278.016 100.864-281.6 281.6 0 155.648 125.952 281.6 281.6 281.6h97.792c155.648 0 281.6-125.952 281.6-281.6-0.512-47.616-15.872-90.112-32.256-131.072z" fill="#FFFFFF" p-id="2456"></path><path d="M576.512 952.832h-97.28c-159.232 0-289.28-129.536-289.28-289.28 1.536-88.064 31.744-162.304 86.016-214.016 51.2-48.64 123.392-75.264 202.752-75.264h57.344c-5.632-24.064-10.24-50.176-13.824-78.336-11.264-90.112 23.552-187.904 128-202.752 26.624-3.584 54.272 4.096 74.752 20.992 20.992 17.408 33.28 41.472 34.304 68.096 6.144 119.296 47.104 282.624 73.216 347.136 15.872 38.4 32.768 83.456 32.768 133.12 0.512 160.768-129.024 290.304-288.768 290.304z m-97.28-563.2c-162.816 0-270.336 107.52-273.92 273.92 0 151.04 122.88 273.408 273.92 273.408h97.792c151.04 0 273.92-122.88 273.92-273.92 0-47.104-16.384-90.624-31.232-127.488-27.136-65.536-68.608-231.424-74.752-352.256-1.024-22.528-11.264-42.496-28.672-57.344-17.408-14.336-40.448-20.992-62.976-17.92-94.72 14.336-125.952 103.424-115.712 186.368 4.096 31.744 9.216 58.88 15.872 86.016l2.56 9.728h-76.8z" fill="#2E66FF" p-id="2457"></path><path d="M574.464 942.592c153.088 0 277.504-124.416 277.504-277.504 0-46.592-14.848-88.576-31.744-128.512-27.648-67.072-67.072-229.888-73.216-345.088-2.048-36.352-26.112-70.144-60.928-79.872 5.632 10.752 20.992 21.504 23.552 44.544 11.776 114.176 34.304 272.384 61.952 338.944 16.384 39.936 31.744 81.92 31.744 128.512 0 153.088-124.416 277.504-277.504 277.504l-5.12 40.96h53.76z" fill="#C9E6FF" p-id="2458"></path><path d="M546.304 381.952s18.432 100.864 71.168 152.576" fill="#FFFFFF" p-id="2459"></path><path d="M617.472 542.72c-2.048 0-4.096-0.512-5.632-2.048C558.08 487.936 539.136 388.096 538.624 384c-1.024-4.096 2.048-8.192 6.144-8.704 4.096-1.024 8.192 2.048 8.704 6.144 0 1.024 18.944 99.328 69.12 148.48 3.072 3.072 3.072 7.68 0 10.752-1.536 1.024-3.584 2.048-5.12 2.048z" fill="#2E66FF" p-id="2460"></path><path d="M505.856 608.256s-75.264-1.536-113.664 34.304c-27.136 25.6-21.504 50.688-1.024 51.2 37.376 1.024 148.992 0 148.992 0 39.936 0 71.68 32.256 71.68 71.68 0 39.936-32.256 70.144-71.68 71.68-87.04 4.096-317.44 26.112-337.408-119.808" fill="#FFFFFF" p-id="2461"></path><path d="M443.392 848.896c-103.936 0-232.96-18.432-248.32-130.048-0.512-4.096 2.56-8.192 6.656-8.704 4.096-0.512 8.192 2.56 8.704 6.656 17.92 130.048 217.088 119.296 312.32 114.176 6.144-0.512 11.776-0.512 16.896-1.024 36.864-1.536 64.512-29.184 64.512-64 0-35.328-28.672-64-64-64-1.024 0-112.128 1.024-148.992 0-10.752-0.512-19.456-6.144-23.04-15.36-5.632-14.336 1.536-32.768 18.944-49.152 40.448-37.888 115.712-36.864 118.784-36.352 4.096 0 7.68 3.584 7.68 7.68s-3.584 7.68-7.68 7.68c-0.512 0-72.704-1.024-108.032 32.256-13.824 13.312-17.92 25.6-15.36 32.256 1.536 4.608 5.632 5.632 9.216 5.632 36.864 1.024 147.456 0 148.992 0 44.032 0 79.872 35.84 79.872 79.36 0 42.496-34.816 77.312-79.36 79.36-5.12 0-10.752 0.512-16.896 1.024-23.04 1.024-50.688 2.56-80.896 2.56z" fill="#2E66FF" p-id="2462"></path><path d="M507.392 483.328s-74.24-1.024-114.688 27.136c-30.72 21.504-21.504 50.688-1.024 51.2 37.376 1.024 148.992 0 148.992 0 39.936 0 71.68 32.256 71.68 71.68 0 39.936-32.256 70.144-71.68 71.68-87.04 4.096-315.904 30.208-328.192-119.296" fill="#FFFFFF" p-id="2463"></path><path d="M436.736 717.312c-100.864 0-223.232-18.944-232.448-130.56-0.512-4.096 2.56-7.68 7.168-8.192 4.096-0.512 8.192 2.56 8.192 7.168 10.752 130.56 197.632 119.296 297.984 113.152 8.192-0.512 15.872-1.024 22.528-1.024 36.864-1.536 64.512-29.184 64.512-64 0-35.328-28.672-64-64-64-1.024 0-112.128 1.024-148.992 0-11.776-0.512-21.504-7.68-25.088-18.944-3.584-12.288 0-30.72 22.016-46.08 41.984-29.184 116.224-28.672 119.296-28.672 4.096 0 7.68 3.584 7.68 7.68s-3.072 7.68-7.68 7.68c-0.512 0-72.704-0.512-110.08 26.112-14.848 10.752-17.92 22.016-15.872 29.184 1.536 5.12 5.632 7.68 10.752 8.192 36.864 1.024 147.456 0 148.992 0 44.032 0 79.872 35.84 79.872 79.36 0 42.496-34.816 77.312-79.36 79.36-6.656 0.512-14.336 1.024-22.528 1.024-24.064 1.024-52.736 2.56-82.944 2.56z" fill="#2E66FF" p-id="2464"></path><path d="M492.544 840.192h15.36c29.184 0 52.736 23.552 52.736 52.736 0 30.208-25.6 54.272-55.808 52.224" fill="#FFFFFF" p-id="2465"></path><path d="M507.904 952.832h-4.096c-4.096-0.512-7.68-4.096-7.168-8.192s4.096-7.168 8.192-7.168c12.288 1.024 24.576-3.584 33.792-11.776 9.216-8.704 14.336-19.968 14.336-32.768 0-24.576-19.968-45.056-45.056-45.056h-15.36c-4.096 0-7.68-3.584-7.68-7.68s3.584-7.68 7.68-7.68h15.36c33.28 0 60.416 27.136 60.416 60.416 0 16.896-6.656 32.256-18.944 44.032-11.776 10.24-26.112 15.872-41.472 15.872z" fill="#2E66FF" p-id="2466"></path><path d="M617.472 313.856c-21.504 0-45.568-12.288-52.736-40.96l-0.512-1.536c-7.168-32.256-0.512-66.048 18.944-93.184 28.16-39.424 62.976-35.328 67.584-34.304 35.328 2.048 49.152 56.832 47.104 107.52-1.024 28.672-15.36 52.224-16.384 53.248-1.536 2.56-4.608 3.072-7.168 1.536-2.56-1.536-3.072-4.608-1.536-7.168 0 0 13.824-22.528 14.848-48.128 2.048-47.104-10.752-95.232-37.888-96.768h-0.512c-1.024 0-31.744-5.12-57.344 30.208-17.92 24.576-24.064 55.808-17.408 84.992l0.512 1.536c6.144 26.112 28.16 34.304 45.056 33.28 18.432-1.024 38.4-12.8 41.472-37.888 2.56-17.408 1.536-38.4-3.072-62.464-2.048-11.776-12.288-20.992-23.552-20.992-9.216 0-17.92 4.096-25.6 12.8-15.36 16.896-19.456 41.472-11.264 61.952 5.12 11.776 12.8 18.432 23.04 19.968 7.168 1.024 11.776 0 14.848-3.072 4.096-4.096 7.68-15.872 1.024-45.056-1.024-4.096-2.56-7.68-5.12-10.752-3.072-3.584-6.144-6.144-8.192-6.144-1.536 0-3.584 1.024-5.12 3.584-5.12 6.656-6.656 15.36-4.608 23.04 1.536 5.632 4.096 9.216 7.68 11.264 2.56 1.024 3.584 4.096 2.048 6.656-1.024 2.56-4.096 3.584-6.656 2.048-6.144-3.072-10.752-9.216-12.8-17.408-3.072-11.264-0.512-23.04 6.656-32.256 4.096-5.12 8.192-7.68 13.312-7.68 5.632 0 11.264 3.584 16.384 9.728 3.072 4.096 5.632 9.216 6.656 14.848 6.144 27.648 4.608 45.568-3.584 54.272-7.68 8.704-19.968 6.656-24.064 6.144-13.824-2.048-24.576-11.264-30.72-26.624-10.24-24.576-5.12-52.736 12.8-72.704 9.728-10.752 20.992-16.384 33.28-16.384 16.384 0 30.72 12.8 33.792 29.184 4.608 25.088 5.632 47.104 3.072 65.536-4.096 30.72-28.672 45.568-51.2 46.592-1.024 1.536-2.048 1.536-3.072 1.536z" fill="#FFB5EC" p-id="2467"></path><path d="M513.536 489.472s3.584 2.048 6.144 5.632c10.24 14.336-16.896 52.736 33.28 59.392H394.752c-7.168 0-13.824-5.12-13.824-12.288 0-20.992 27.136-48.128 132.608-52.736z" fill="#C9E6FF" p-id="2468"></path></svg>